# xmcd
#
# Track frame offsets:
#	150
#	13008
#	22803
#	32254
#	47029
#	58881
#	70838
#	81603
#	91859
#	104414
#	112061
#	126577
#
# Disc length: 1856 seconds
#
# Revision: 3
# Processed by: cddbd v1.5.2PL0 Copyright (c) Steve Scherf et al.
# Submitted via: audiograbber 1.83.01
#
DISCID=a0073e0c
DTITLE=Various Artist - Country Greats
DYEAR=1900
DGENRE=Country
TTITLE0=Hillarel - Springer - Moonlight Gambler
TTITLE1=Harris - Dean - Rockabilly
TTITLE2=J. Breake - Ch. Exwell - Five Dollar Boogie
TTITLE3=Shanklin - Jezebel
TTITLE4=Ch. Exwell - N. Maroni - Afternoon Love
TTITLE5=Sigmann - Faith - My Heart Cries For You
TTITLE6=Endsley - Singing The Blues
TTITLE7=Swander - Hershey - Deep in The Heart of Texas
TTITLE8=Washington - Tiomkin - High Noon
TTITLE9=Ch. Exwell - J. Breake - Tiger Baby
TTITLE10=Gade - Bloom - Jealousie
TTITLE11=Semreh - Reklov - I'm Calling You
EXTD=
EXTT0=
EXTT1=
EXTT2=
EXTT3=
EXTT4=
EXTT5=
EXTT6=
EXTT7=
EXTT8=
EXTT9=
EXTT10=
EXTT11=
PLAYORDER=
